<svg xmlns="http://www.w3.org/2000/svg" xmlns:xlink="http://www.w3.org/1999/xlink" version="1.1" width="256" height="256" viewBox="0 0 256 256" xml:space="preserve">

<defs>
</defs>
<g style="stroke: none; stroke-width: 0; stroke-dasharray: none; stroke-linecap: butt; stroke-linejoin: miter; stroke-miterlimit: 10; fill: none; fill-rule: nonzero; opacity: 1;" transform="translate(1.4065934065934016 1.4065934065934016) scale(2.81 2.81)" >
	<path d="M 81.97 57.327 l -4.324 -6.075 l -30.224 3.735 v 0.676 l 2.14 12.882 c 0.82 5.322 4.141 9.928 8.932 12.388 l 2.113 1.085 c 7.814 4.012 17.401 1.328 21.995 -6.159 C 86.127 70.114 85.878 62.818 81.97 57.327 z" style="stroke: none; stroke-width: 1; stroke-dasharray: none; stroke-linecap: butt; stroke-linejoin: miter; stroke-miterlimit: 10; fill: rgb(242,78,78); fill-rule: nonzero; opacity: 1;" transform=" matrix(1 0 0 1 0 0) " stroke-linecap="round" />
	<path d="M 42.572 54.986 l -30.218 -3.735 L 8.03 57.327 c -3.909 5.491 -4.157 12.787 -0.632 18.532 c 4.595 7.487 14.181 10.171 21.995 6.159 l 2.113 -1.085 c 4.79 -2.46 8.111 -7.066 8.932 -12.388 l 2.134 -12.847 V 54.986 z" style="stroke: none; stroke-width: 1; stroke-dasharray: none; stroke-linecap: butt; stroke-linejoin: miter; stroke-miterlimit: 10; fill: rgb(242,78,78); fill-rule: nonzero; opacity: 1;" transform=" matrix(1 0 0 1 0 0) " stroke-linecap="round" />
	<path d="M 82.232 6.474 C 70.629 3.35 59.025 21.578 47.422 46.971 c -1.054 2.792 -1.146 5.486 0 8.053 c 10.007 2.225 23.166 4.103 34.273 -5.934 C 90.016 42.241 94.992 11.04 82.232 6.474 z" style="stroke: none; stroke-width: 1; stroke-dasharray: none; stroke-linecap: butt; stroke-linejoin: miter; stroke-miterlimit: 10; fill: rgb(242,78,78); fill-rule: nonzero; opacity: 1;" transform=" matrix(1 0 0 1 0 0) " stroke-linecap="round" />
	<path d="M 17.626 75.858 c -3.525 -5.745 -3.277 -13.04 0.632 -18.532 l 3.497 -4.914 l -9.4 -1.162 L 8.03 57.327 c -3.909 5.491 -4.157 12.787 -0.632 18.532 c 4.104 6.688 12.189 9.528 19.439 7.201 C 23.125 81.874 19.809 79.416 17.626 75.858 z" style="stroke: none; stroke-width: 1; stroke-dasharray: none; stroke-linecap: butt; stroke-linejoin: miter; stroke-miterlimit: 10; fill: rgb(232,71,71); fill-rule: nonzero; opacity: 1;" transform=" matrix(1 0 0 1 0 0) " stroke-linecap="round" />
	<path d="M 72.374 75.858 c 3.525 -5.745 3.277 -13.04 -0.632 -18.532 l -3.497 -4.914 l 9.4 -1.162 l 4.324 6.075 c 3.909 5.491 4.157 12.787 0.632 18.532 c -4.104 6.688 -12.189 9.528 -19.439 7.201 C 66.875 81.874 70.191 79.416 72.374 75.858 z" style="stroke: none; stroke-width: 1; stroke-dasharray: none; stroke-linecap: butt; stroke-linejoin: miter; stroke-miterlimit: 10; fill: rgb(232,71,71); fill-rule: nonzero; opacity: 1;" transform=" matrix(1 0 0 1 0 0) " stroke-linecap="round" />
	<path d="M 42.572 46.959 C 30.971 21.572 19.369 3.35 7.768 6.474 C -4.992 11.04 -0.016 42.241 8.305 49.091 c 11.105 10.035 24.261 8.159 34.267 5.935 C 43.702 52.456 43.609 49.758 42.572 46.959 z" style="stroke: none; stroke-width: 1; stroke-dasharray: none; stroke-linecap: butt; stroke-linejoin: miter; stroke-miterlimit: 10; fill: rgb(242,78,78); fill-rule: nonzero; opacity: 1;" transform=" matrix(1 0 0 1 0 0) " stroke-linecap="round" />
	<path d="M 18.532 49.091 c -7.815 -6.433 -12.677 -34.344 -2.668 -41.497 c -2.699 -1.405 -5.398 -1.847 -8.097 -1.12 C -4.992 11.04 -0.016 42.241 8.305 49.091 c 8.277 7.479 17.692 8.341 26.094 7.374 C 29.012 55.732 23.562 53.635 18.532 49.091 z" style="stroke: none; stroke-width: 1; stroke-dasharray: none; stroke-linecap: butt; stroke-linejoin: miter; stroke-miterlimit: 10; fill: rgb(232,71,71); fill-rule: nonzero; opacity: 1;" transform=" matrix(1 0 0 1 0 0) " stroke-linecap="round" />
	<path d="M 71.468 49.091 c 7.815 -6.433 12.677 -34.344 2.668 -41.497 c 2.699 -1.405 5.398 -1.847 8.097 -1.12 c 12.759 4.567 7.783 35.767 -0.537 42.617 c -8.277 7.479 -17.692 8.341 -26.094 7.374 C 60.988 55.732 66.438 53.635 71.468 49.091 z" style="stroke: none; stroke-width: 1; stroke-dasharray: none; stroke-linecap: butt; stroke-linejoin: miter; stroke-miterlimit: 10; fill: rgb(232,71,71); fill-rule: nonzero; opacity: 1;" transform=" matrix(1 0 0 1 0 0) " stroke-linecap="round" />
	<path d="M 46.254 72.512 l -0.46 2.726 c -0.151 0.899 -1.443 0.899 -1.594 0 l -0.46 -2.726 c -0.777 -4.611 -1.168 -9.279 -1.168 -13.956 v -19.4 c 0 -1.339 1.086 -2.425 2.425 -2.425 h 0 c 1.339 0 2.425 1.086 2.425 2.425 v 19.4 C 47.422 63.232 47.031 67.9 46.254 72.512 z" style="stroke: none; stroke-width: 1; stroke-dasharray: none; stroke-linecap: butt; stroke-linejoin: miter; stroke-miterlimit: 10; fill: rgb(107,107,107); fill-rule: nonzero; opacity: 1;" transform=" matrix(1 0 0 1 0 0) " stroke-linecap="round" />
	<path d="M 49.222 35.661 c 0 2.299 -1.864 4.164 -4.164 4.164 c -2.299 0 -4.164 -1.864 -4.164 -4.164 c 0 -2.299 1.864 -6.473 4.164 -6.473 C 47.358 29.187 49.222 33.361 49.222 35.661 z" style="stroke: none; stroke-width: 1; stroke-dasharray: none; stroke-linecap: butt; stroke-linejoin: miter; stroke-miterlimit: 10; fill: rgb(107,107,107); fill-rule: nonzero; opacity: 1;" transform=" matrix(1 0 0 1 0 0) " stroke-linecap="round" />
	<path d="M 47.096 32.738 c -0.544 0 -0.989 -0.435 -1 -0.981 c -0.103 -5.364 2.689 -12.144 7.115 -17.271 c 0.359 -0.418 0.993 -0.465 1.41 -0.104 c 0.418 0.361 0.465 0.992 0.104 1.41 c -4.058 4.702 -6.722 11.102 -6.629 15.926 c 0.011 0.552 -0.429 1.008 -0.98 1.019 C 47.108 32.738 47.102 32.738 47.096 32.738 z" style="stroke: none; stroke-width: 1; stroke-dasharray: none; stroke-linecap: butt; stroke-linejoin: miter; stroke-miterlimit: 10; fill: rgb(107,107,107); fill-rule: nonzero; opacity: 1;" transform=" matrix(1 0 0 1 0 0) " stroke-linecap="round" />
	<path d="M 43.019 32.738 c -0.007 0 -0.013 0 -0.02 0 c -0.552 -0.011 -0.991 -0.467 -0.981 -1.019 c 0.093 -4.825 -2.572 -11.225 -6.629 -15.926 c -0.361 -0.418 -0.314 -1.049 0.104 -1.41 c 0.417 -0.361 1.049 -0.314 1.41 0.104 c 4.425 5.126 7.218 11.905 7.116 17.271 C 44.008 32.303 43.563 32.738 43.019 32.738 z" style="stroke: none; stroke-width: 1; stroke-dasharray: none; stroke-linecap: butt; stroke-linejoin: miter; stroke-miterlimit: 10; fill: rgb(107,107,107); fill-rule: nonzero; opacity: 1;" transform=" matrix(1 0 0 1 0 0) " stroke-linecap="round" />
</g>
</svg>